<mxfile host="app.diagrams.net" agent="Mozilla/5.0 (Windows NT 10.0; Win64; x64) AppleWebKit/537.36 (KHTML, like Gecko) Chrome/129.0.0.0 Safari/537.36" version="24.8.0">
  <diagram name="Strona-1" id="eUZQB6IgvzXbATdob9hY">
    <mxGraphModel dx="867" dy="507" grid="1" gridSize="5" guides="1" tooltips="1" connect="1" arrows="1" fold="1" page="1" pageScale="1" pageWidth="827" pageHeight="1169" math="0" shadow="0">
      <root>
        <mxCell id="0" />
        <mxCell id="1" parent="0" />
        <mxCell id="-bSqYHPpsytvGSuUgfg1-2" value="Klient" style="rounded=0;whiteSpace=wrap;html=1;" vertex="1" parent="1">
          <mxGeometry x="120" y="90" width="120" height="60" as="geometry" />
        </mxCell>
        <mxCell id="-bSqYHPpsytvGSuUgfg1-4" value="Telefon" style="rounded=0;whiteSpace=wrap;html=1;" vertex="1" parent="1">
          <mxGeometry x="120" y="250" width="120" height="60" as="geometry" />
        </mxCell>
        <mxCell id="-bSqYHPpsytvGSuUgfg1-5" value="Podaj&lt;br&gt;Hasło" style="ellipse;whiteSpace=wrap;html=1;aspect=fixed;" vertex="1" parent="1">
          <mxGeometry x="320" y="240" width="80" height="80" as="geometry" />
        </mxCell>
        <mxCell id="-bSqYHPpsytvGSuUgfg1-6" value="Weryfikacja&lt;div&gt;logowania&lt;/div&gt;" style="ellipse;whiteSpace=wrap;html=1;aspect=fixed;" vertex="1" parent="1">
          <mxGeometry x="320" y="80" width="80" height="80" as="geometry" />
        </mxCell>
        <mxCell id="-bSqYHPpsytvGSuUgfg1-7" value="Aplikacja" style="rounded=0;whiteSpace=wrap;html=1;" vertex="1" parent="1">
          <mxGeometry x="300" y="370" width="120" height="60" as="geometry" />
        </mxCell>
        <mxCell id="-bSqYHPpsytvGSuUgfg1-8" value="" style="endArrow=classic;html=1;rounded=0;exitX=1;exitY=0.5;exitDx=0;exitDy=0;" edge="1" parent="1" source="-bSqYHPpsytvGSuUgfg1-2" target="-bSqYHPpsytvGSuUgfg1-6">
          <mxGeometry width="50" height="50" relative="1" as="geometry">
            <mxPoint x="390" y="240" as="sourcePoint" />
            <mxPoint x="440" y="190" as="targetPoint" />
          </mxGeometry>
        </mxCell>
        <mxCell id="-bSqYHPpsytvGSuUgfg1-9" value="dane&lt;br&gt;klienta" style="text;html=1;align=center;verticalAlign=middle;whiteSpace=wrap;rounded=0;" vertex="1" parent="1">
          <mxGeometry x="250" y="88" width="60" height="30" as="geometry" />
        </mxCell>
        <mxCell id="-bSqYHPpsytvGSuUgfg1-10" value="" style="endArrow=classic;html=1;rounded=0;exitX=1;exitY=0.5;exitDx=0;exitDy=0;" edge="1" parent="1" source="-bSqYHPpsytvGSuUgfg1-4" target="-bSqYHPpsytvGSuUgfg1-5">
          <mxGeometry width="50" height="50" relative="1" as="geometry">
            <mxPoint x="390" y="240" as="sourcePoint" />
            <mxPoint x="440" y="190" as="targetPoint" />
          </mxGeometry>
        </mxCell>
        <mxCell id="-bSqYHPpsytvGSuUgfg1-11" value="hasło" style="text;html=1;align=center;verticalAlign=middle;whiteSpace=wrap;rounded=0;" vertex="1" parent="1">
          <mxGeometry x="250" y="250" width="60" height="30" as="geometry" />
        </mxCell>
        <mxCell id="-bSqYHPpsytvGSuUgfg1-12" value="" style="endArrow=classic;html=1;rounded=0;exitX=0.5;exitY=1;exitDx=0;exitDy=0;entryX=0.5;entryY=0;entryDx=0;entryDy=0;" edge="1" parent="1" source="-bSqYHPpsytvGSuUgfg1-5" target="-bSqYHPpsytvGSuUgfg1-7">
          <mxGeometry width="50" height="50" relative="1" as="geometry">
            <mxPoint x="390" y="240" as="sourcePoint" />
            <mxPoint x="440" y="190" as="targetPoint" />
          </mxGeometry>
        </mxCell>
        <mxCell id="-bSqYHPpsytvGSuUgfg1-13" value="komunikat" style="text;html=1;align=center;verticalAlign=middle;whiteSpace=wrap;rounded=0;" vertex="1" parent="1">
          <mxGeometry x="360" y="330" width="60" height="30" as="geometry" />
        </mxCell>
        <mxCell id="-bSqYHPpsytvGSuUgfg1-14" value="" style="endArrow=none;html=1;rounded=0;" edge="1" parent="1">
          <mxGeometry width="50" height="50" relative="1" as="geometry">
            <mxPoint x="470" y="100" as="sourcePoint" />
            <mxPoint x="530" y="100" as="targetPoint" />
          </mxGeometry>
        </mxCell>
        <mxCell id="-bSqYHPpsytvGSuUgfg1-15" value="" style="endArrow=none;html=1;rounded=0;" edge="1" parent="1">
          <mxGeometry width="50" height="50" relative="1" as="geometry">
            <mxPoint x="470" y="106" as="sourcePoint" />
            <mxPoint x="530" y="106" as="targetPoint" />
          </mxGeometry>
        </mxCell>
        <mxCell id="-bSqYHPpsytvGSuUgfg1-16" value="" style="endArrow=none;html=1;rounded=0;" edge="1" parent="1">
          <mxGeometry width="50" height="50" relative="1" as="geometry">
            <mxPoint x="470" y="133.23000000000002" as="sourcePoint" />
            <mxPoint x="530" y="133.23000000000002" as="targetPoint" />
          </mxGeometry>
        </mxCell>
        <mxCell id="-bSqYHPpsytvGSuUgfg1-17" value="" style="endArrow=none;html=1;rounded=0;" edge="1" parent="1">
          <mxGeometry width="50" height="50" relative="1" as="geometry">
            <mxPoint x="470" y="139.23000000000002" as="sourcePoint" />
            <mxPoint x="530" y="139.23000000000002" as="targetPoint" />
          </mxGeometry>
        </mxCell>
        <mxCell id="-bSqYHPpsytvGSuUgfg1-18" value="aplikacja" style="text;html=1;align=center;verticalAlign=middle;whiteSpace=wrap;rounded=0;" vertex="1" parent="1">
          <mxGeometry x="471" y="105" width="60" height="30" as="geometry" />
        </mxCell>
        <mxCell id="-bSqYHPpsytvGSuUgfg1-19" value="" style="endArrow=classic;html=1;rounded=0;exitX=1;exitY=0.5;exitDx=0;exitDy=0;entryX=0;entryY=0.5;entryDx=0;entryDy=0;" edge="1" parent="1" source="-bSqYHPpsytvGSuUgfg1-6" target="-bSqYHPpsytvGSuUgfg1-18">
          <mxGeometry width="50" height="50" relative="1" as="geometry">
            <mxPoint x="540" y="250" as="sourcePoint" />
            <mxPoint x="590" y="200" as="targetPoint" />
          </mxGeometry>
        </mxCell>
        <mxCell id="-bSqYHPpsytvGSuUgfg1-20" value="sprawdzanie&lt;div&gt;danych&lt;/div&gt;&lt;div&gt;klienta&lt;/div&gt;" style="text;html=1;align=center;verticalAlign=middle;whiteSpace=wrap;rounded=0;" vertex="1" parent="1">
          <mxGeometry x="400" y="81" width="60" height="30" as="geometry" />
        </mxCell>
        <mxCell id="-bSqYHPpsytvGSuUgfg1-21" value="" style="endArrow=none;html=1;rounded=0;" edge="1" parent="1">
          <mxGeometry width="50" height="50" relative="1" as="geometry">
            <mxPoint x="424" y="190" as="sourcePoint" />
            <mxPoint x="484" y="190" as="targetPoint" />
          </mxGeometry>
        </mxCell>
        <mxCell id="-bSqYHPpsytvGSuUgfg1-22" value="" style="endArrow=none;html=1;rounded=0;" edge="1" parent="1">
          <mxGeometry width="50" height="50" relative="1" as="geometry">
            <mxPoint x="424" y="196" as="sourcePoint" />
            <mxPoint x="484" y="196" as="targetPoint" />
          </mxGeometry>
        </mxCell>
        <mxCell id="-bSqYHPpsytvGSuUgfg1-23" value="" style="endArrow=none;html=1;rounded=0;" edge="1" parent="1">
          <mxGeometry width="50" height="50" relative="1" as="geometry">
            <mxPoint x="424" y="223.23000000000002" as="sourcePoint" />
            <mxPoint x="484" y="223.23000000000002" as="targetPoint" />
          </mxGeometry>
        </mxCell>
        <mxCell id="-bSqYHPpsytvGSuUgfg1-24" value="" style="endArrow=none;html=1;rounded=0;" edge="1" parent="1">
          <mxGeometry width="50" height="50" relative="1" as="geometry">
            <mxPoint x="424" y="229.23000000000002" as="sourcePoint" />
            <mxPoint x="484" y="229.23000000000002" as="targetPoint" />
          </mxGeometry>
        </mxCell>
        <mxCell id="-bSqYHPpsytvGSuUgfg1-25" value="logi" style="text;html=1;align=center;verticalAlign=middle;whiteSpace=wrap;rounded=0;" vertex="1" parent="1">
          <mxGeometry x="425" y="195" width="60" height="30" as="geometry" />
        </mxCell>
        <mxCell id="-bSqYHPpsytvGSuUgfg1-31" value="dane klienta" style="text;html=1;align=center;verticalAlign=middle;whiteSpace=wrap;rounded=0;" vertex="1" parent="1">
          <mxGeometry x="400" y="145" width="60" height="30" as="geometry" />
        </mxCell>
        <mxCell id="-bSqYHPpsytvGSuUgfg1-32" value="" style="endArrow=classic;html=1;rounded=0;exitX=1;exitY=1;exitDx=0;exitDy=0;entryX=0;entryY=0.5;entryDx=0;entryDy=0;" edge="1" parent="1" source="-bSqYHPpsytvGSuUgfg1-6" target="-bSqYHPpsytvGSuUgfg1-25">
          <mxGeometry width="50" height="50" relative="1" as="geometry">
            <mxPoint x="465" y="245" as="sourcePoint" />
            <mxPoint x="515" y="195" as="targetPoint" />
          </mxGeometry>
        </mxCell>
        <mxCell id="-bSqYHPpsytvGSuUgfg1-33" value="" style="endArrow=classic;html=1;rounded=0;exitX=0.5;exitY=0;exitDx=0;exitDy=0;entryX=0.5;entryY=1;entryDx=0;entryDy=0;" edge="1" parent="1" source="-bSqYHPpsytvGSuUgfg1-5" target="-bSqYHPpsytvGSuUgfg1-6">
          <mxGeometry width="50" height="50" relative="1" as="geometry">
            <mxPoint x="465" y="245" as="sourcePoint" />
            <mxPoint x="515" y="195" as="targetPoint" />
          </mxGeometry>
        </mxCell>
        <mxCell id="-bSqYHPpsytvGSuUgfg1-34" value="hasło" style="text;html=1;align=center;verticalAlign=middle;whiteSpace=wrap;rounded=0;" vertex="1" parent="1">
          <mxGeometry x="305" y="190" width="60" height="30" as="geometry" />
        </mxCell>
      </root>
    </mxGraphModel>
  </diagram>
</mxfile>
